<svg width="512" height="512" viewBox="0 0 512 512" fill="none" xmlns="http://www.w3.org/2000/svg">
<rect width="512" height="512" fill="#F1F5F9"/>
<path d="M256 215.04C272.295 215.04 287.922 208.567 299.445 197.045C310.967 185.522 317.44 169.895 317.44 153.6C317.44 137.305 310.967 121.678 299.445 110.155C287.922 98.6331 272.295 92.16 256 92.16C239.705 92.16 224.078 98.6331 212.555 110.155C201.033 121.678 194.56 137.305 194.56 153.6C194.56 169.895 201.033 185.522 212.555 197.045C224.078 208.567 239.705 215.04 256 215.04ZM122.163 348.017C120.262 353.098 120.052 358.658 121.565 363.868C123.078 369.079 126.233 373.661 130.56 376.934C166.427 404.809 210.575 419.909 256 419.84C303.309 419.84 346.89 403.784 381.563 376.832C390.369 370.012 393.933 358.339 389.919 347.955C379.52 320.881 361.156 297.597 337.251 281.175C313.345 264.752 285.022 255.965 256.02 255.972C227.017 255.978 198.699 264.779 174.801 281.212C150.903 297.645 132.55 320.938 122.163 348.017Z" fill="black"/>
</svg>
